<svg id="Capa_1" enable-background="new 0 0 512 512" height="512" viewBox="0 0 512 512" width="512" xmlns="http://www.w3.org/2000/svg"><g><circle cx="256" cy="256" fill="#a6d12b" r="256"/><g><path d="m512 256c0-12.165-.868-24.125-2.509-35.838l-95.034-95.034-300.234 45.915v59.355l76.782 76.782v87.951l112.459 112.459c118.704-22.257 208.536-126.425 208.536-251.59z" fill="#80b405"/></g><g><g><path d="m214.413 383.964c0 26.42 21.418 47.838 47.838 47.838l10-26.153-10-69.522c-26.42-.001-47.838 21.417-47.838 47.837z" fill="#a58f89"/><path d="m262.251 336.126v95.676c26.42 0 47.838-21.418 47.838-47.838s-21.418-47.838-47.838-47.838z" fill="#866d67"/></g><g><path d="m260.599 77.136c-61.121.875-110.816 31.014-111.173 92.141-.074 12.736 1.962 24.986 5.78 36.42 15.302 45.828 23.99 93.603 23.99 141.919v16.631l83.056-5.257 20-133.348-20-148.516c-.552.002-1.101.002-1.653.01z" fill="#ece8e7"/><path d="m262.251 77.125v281.865l83.056 5.257v-21.399c0-46.387 8.505-92.247 23.632-136.097 3.979-11.533 6.14-23.913 6.14-36.799 0-62.314-50.516-93.17-112.828-92.827z" fill="#c3b2ae"/></g><g><path d="m209.916 240.642c-8.284 0-15-6.716-15-15 0-8.284 6.716-15 15-15 8.284 0 15 6.716 15 15 0 8.284-6.716 15-15 15z" fill="#68544f"/><path d="m314.586 240.642c8.284 0 15-6.716 15-15 0-8.284-6.716-15-15-15-8.284 0-15 6.716-15 15 0 8.284 6.716 15 15 15z" fill="#53433f"/></g><g><g><g><g><path d="m388.762 228.497c3.153 4.208 9.663 3.532 11.94-1.209l22.733-47.332c12.642-26.321-.69-57.761-28.398-66.973l-53.785-17.88c-10.917-2.482-20.428 7.784-17.121 18.48 0 .001 45.12 88.875 64.631 114.914z" fill="#292929"/></g></g></g><g><g><g><path d="m123.238 228.497c-3.153 4.208-9.663 3.532-11.94-1.209l-22.733-47.332c-12.642-26.321.69-57.761 28.398-66.973l53.785-17.88c10.917-2.482 20.428 7.784 17.121 18.48 0 .001-45.12 88.875-64.631 114.914z" fill="#444"/></g></g></g></g><path d="m296.13 142.872c0-9.8.373-17.745 10.173-17.745s17.745 7.945 17.745 17.745-7.945 17.745-17.745 17.745-10.173-7.945-10.173-17.745z" fill="#292929"/><g><path d="m247.397 77.802c-12.157 1.059-23.715 3.354-34.349 6.903-9.082 8.711-12.687 22.283-8.08 34.856 6.212 16.956 20.194 12.566 37.15 6.354 8.085-2.962 15.38-5.806 20.133-9.807l2-11.487-2-15.354c-3.771-5.263-8.977-9.203-14.854-11.465z" fill="#444"/><path d="m262.251 89.268v26.841c5.215-4.39 7.37-10.172 4.12-19.043-1.042-2.842-2.439-5.451-4.12-7.798z" fill="#292929"/><path d="m168.669 254.193c3.649 16.421 6.412 33.018 8.183 49.735 16.218-6.001 28.729-11.843 22.708-28.281-4.876-13.306-17.492-21.53-30.891-21.454z" fill="#444"/><path d="m351.448 267.166c-10.287-5.557-18.839-9.67-24.396.618s-1.722 23.132 8.565 28.689c3.88 2.096 8.124 2.853 12.204 2.434 1.183-10.432 2.787-20.811 4.765-31.123-.377-.206-.755-.411-1.138-.618z" fill="#292929"/></g><g><path d="m226.271 317.955c-.255-.004-.506-.023-.762-.023-25.578 0-46.314 20.735-46.314 46.314s20.735 46.314 46.314 46.314c14.972 0 28.276-7.111 36.742-18.132l10-16.973-10-25.124z" fill="#fff"/><path d="m298.993 317.933c-.256 0-.507.018-.762.023l-35.98 32.377v42.096c8.466 11.021 21.771 18.132 36.742 18.132 25.578 0 46.314-20.735 46.314-46.314s-20.736-46.314-46.314-46.314z" fill="#e3eaee"/><g><path d="m231.476 290.667c-11.19 0-17.252 13.1-10.01 21.63l4.804 5.658 35.98 42.377 10-37.642-10-32.023z" fill="#444"/><path d="m293.025 290.667h-30.774v69.665l35.98-42.377 4.804-5.658c7.242-8.53 1.18-21.63-10.01-21.63z" fill="#292929"/></g></g></g></g></svg>